<svg id="Layer_1" data-name="Layer 1" xmlns="http://www.w3.org/2000/svg" width="493.96" height="69.55" viewBox="0 0 493.96 69.55"><defs><style>.cls-1{fill:#a1cd45;}.cls-2{fill:#febe18;}.cls-3{fill:#f99d27;}.cls-4{fill:#ee368e;}.cls-5{fill:#00addb;}.cls-6,.cls-7{fill:#1b243d;}.cls-6{fill-rule:evenodd;}</style></defs><title>giveawayBotHeader</title><rect class="cls-1" x="350.16" y="1.44" width="6.4" height="12.8" transform="translate(-1.47 27.24) rotate(-4.41)"/><rect class="cls-2" x="326.41" y="14.04" width="6.4" height="6.4" transform="translate(136.21 286.11) rotate(-57.53)"/><rect class="cls-3" x="444.88" y="32.47" width="6.4" height="6.4" transform="translate(175.53 394.59) rotate(-57.53)"/><rect class="cls-4" x="298.98" y="52.93" width="6.4" height="11.6"/><rect class="cls-5" x="360.33" y="48.55" width="6.4" height="6.4" transform="translate(67.96 272.24) rotate(-45)"/><rect class="cls-5" x="26.41" y="55.96" width="6.4" height="12.1" transform="translate(-40.61 54.48) rotate(-58.16)"/><rect class="cls-3" x="272.09" y="60.02" width="6.4" height="6.4" transform="translate(-6.88 98.47) rotate(-20.1)"/><rect class="cls-4" x="419.43" y="37.53" width="7.2" height="7.2" transform="translate(6.33 133.89) rotate(-18.16)"/><rect class="cls-1" x="488.23" y="0.86" width="6.4" height="6.2" transform="translate(380.38 483.17) rotate(-77.63)"/><rect class="cls-1" x="400.24" y="54.43" width="6.4" height="6.2" transform="translate(258.92 439.31) rotate(-77.63)"/><rect class="cls-1" x="221.95" y="60.07" width="6.4" height="6.4" transform="translate(113.2 269.66) rotate(-77.63)"/><rect class="cls-4" x="136.69" y="22.76" width="7.2" height="7.2" transform="translate(-3.15 45.06) rotate(-18.16)"/><rect class="cls-2" x="157.65" y="4.55" width="11.9" height="6.4" transform="translate(144.93 170.71) rotate(-86.84)"/><rect class="cls-4" x="458.76" y="56.11" width="6.4" height="11.6" transform="translate(97.76 355.18) rotate(-46.62)"/><rect class="cls-2" x="488.26" y="58.12" width="6.4" height="6.4" transform="translate(173.99 443.08) rotate(-57.53)"/><rect class="cls-2" x="225.67" y="5.41" width="6.4" height="6.4" transform="translate(96.83 197.12) rotate(-57.53)"/><rect class="cls-4" x="380.89" y="57.43" width="6.4" height="11.6" transform="translate(73.97 301.03) rotate(-47)"/><rect class="cls-5" x="414.6" y="6.26" width="6.4" height="12.1" transform="translate(185.02 360.78) rotate(-58.16)"/><rect class="cls-5" x="485.1" y="21.42" width="6.4" height="12.1" transform="translate(205.45 427.83) rotate(-58.16)"/><rect class="cls-3" x="464.91" y="10.35" width="6.4" height="6.4" transform="translate(21.93 161.7) rotate(-20.1)"/><rect class="cls-1" x="376.7" y="30.86" width="12.8" height="6.4" transform="translate(-0.83 78.7) rotate(-11.74)"/><rect class="cls-4" x="346.24" y="25.08" width="7.2" height="7.2" transform="translate(6.56 110.47) rotate(-18.16)"/><rect class="cls-1" x="468.98" y="40.52" width="6.4" height="6.2" transform="translate(326.52 495.53) rotate(-77.63)"/><rect class="cls-4" x="302.08" y="1.33" width="6.4" height="11.6"/><rect class="cls-1" x="263.31" y="2.37" width="6.4" height="6.4" transform="translate(202.07 264.72) rotate(-77.63)"/><rect class="cls-3" x="428.73" y="59.38" width="6.4" height="6.4" transform="translate(145.35 393.44) rotate(-57.53)"/><rect class="cls-5" x="128.64" y="-0.05" width="6.4" height="12.1" transform="matrix(0.15, -0.99, 0.99, 0.15, 104.61, 135.55)"/><rect class="cls-3" x="323.13" y="45.88" width="5.7" height="6.4" transform="translate(58.85 244.91) rotate(-45)"/><rect class="cls-3" x="189.48" y="53.68" width="5.7" height="6.4" transform="translate(14.19 152.69) rotate(-45)"/><rect class="cls-1" x="342.06" y="60.75" width="6.4" height="6.2" transform="translate(207.03 387.45) rotate(-77.63)"/><rect class="cls-1" x="441.6" y="3.13" width="12.8" height="6.4" transform="translate(6.17 91.33) rotate(-11.74)"/><rect class="cls-5" x="4.61" y="4.55" width="6.4" height="6.4" transform="translate(-5.11 7.82) rotate(-45)"/><rect class="cls-2" x="377.92" y="4.85" width="6.4" height="11.9" transform="translate(230.5 361.9) rotate(-68.67)"/><rect class="cls-4" x="19.19" y="36.57" width="7.2" height="7.2" transform="translate(-13.3 9.13) rotate(-18.16)"/><rect class="cls-4" x="83.68" y="29.73" width="6.4" height="11.6"/><rect class="cls-3" x="106.02" y="16.94" width="6.4" height="6.4" transform="translate(31.68 101.5) rotate(-57.53)"/><rect class="cls-2" x="61.35" y="53.42" width="6.4" height="6.4" transform="translate(-19.79 80.72) rotate(-57.53)"/><rect class="cls-4" x="2.68" y="55.93" width="6.4" height="11.6"/><rect class="cls-5" x="144.52" y="53.45" width="6.4" height="6.4" transform="translate(1.29 121.07) rotate(-45)"/><rect class="cls-5" x="85.57" y="59.96" width="6.4" height="6.4" transform="translate(-20.58 81.3) rotate(-45)"/><rect class="cls-5" x="190.17" y="1.3" width="6.4" height="6.4" transform="translate(51.54 138.08) rotate(-45)"/><rect class="cls-3" x="26.39" y="6.44" width="6.4" height="6.4" transform="translate(-3.43 10.78) rotate(-20.1)"/><rect class="cls-1" x="118.3" y="44.66" width="12.8" height="6.4" transform="translate(-10.77 45.79) rotate(-20.1)"/><rect class="cls-1" x="2.63" y="24.22" width="12.8" height="6.4" transform="translate(-10.79 4.8) rotate(-20.1)"/><rect class="cls-2" x="79.65" y="3.95" width="11.9" height="6.4" transform="translate(71.82 92.25) rotate(-86.84)"/><rect class="cls-2" x="41.05" y="34.35" width="11.9" height="6.4" transform="translate(5 82.44) rotate(-86.84)"/><rect class="cls-1" x="56.9" y="7.76" width="6.4" height="6.2" transform="translate(34.71 67.27) rotate(-77.63)"/><rect class="cls-1" x="163.93" y="59.4" width="6.4" height="6.4" transform="translate(68.27 212.46) rotate(-77.63)"/><rect class="cls-1" x="160.94" y="26.22" width="8.5" height="8.2" transform="translate(98.27 185.2) rotate(-77.63)"/><path class="cls-6" d="M290.17,46.65C279.3,54.62,263.36,59,249.77,59a73,73,0,0,1-49.28-18.84c-1.09-.91-.19-2.17,1.08-1.45a99,99,0,0,0,49.29,13,97.41,97.41,0,0,0,37.68-7.8c1.82-.54,3.27,1.45,1.63,2.72Z" transform="translate(-1.92 0.03)"/><path class="cls-6" d="M294.7,41.58c-1.45-1.81-9.24-.91-12.68-.36-1.09.18-1.27-.73-.18-1.45,6.16-4.35,16.49-3.08,17.76-1.63s-.37,11.77-6.16,16.67c-.91.72-1.82.36-1.27-.73.9-3.44,3.8-10.69,2.53-12.5Z" transform="translate(-1.92 0.03)"/><path class="cls-7" d="M190.14,31.15a4.28,4.28,0,0,1-2.95,1.12,4,4,0,0,1-3.27-1.53,6.38,6.38,0,0,1-1.22-4.08,6.54,6.54,0,0,1,1.23-4.16,4,4,0,0,1,3.3-1.56,4.57,4.57,0,0,1,1.74.33,4.25,4.25,0,0,1,1.45,1l.25-1h2.64V31.63a5.2,5.2,0,0,1-5.64,5.68,9,9,0,0,1-4-1V34.21a13,13,0,0,0,3.76.68,2.8,2.8,0,0,0,2.1-.67,3.1,3.1,0,0,0,.65-2.19Zm-2-1.26a3.29,3.29,0,0,0,1-.16,3.55,3.55,0,0,0,.94-.45V23.87a4,4,0,0,0-2.11-.55c-1.41,0-2.12,1.08-2.12,3.25a4.6,4.6,0,0,0,.55,2.51A1.94,1.94,0,0,0,188.18,29.89Z" transform="translate(-1.92 0.03)"/><path class="cls-7" d="M198.08,19.53a1.9,1.9,0,0,1-1.34-.46,1.8,1.8,0,0,1,0-2.51,2.18,2.18,0,0,1,2.68,0,1.8,1.8,0,0,1,0,2.51A1.9,1.9,0,0,1,198.08,19.53Zm-1.61,13V21.27h3.22V32.51Z" transform="translate(-1.92 0.03)"/><path class="cls-7" d="M205.67,32.51,201.4,21.27h3.41l2.4,8.36,2.44-8.36H213l-4.24,11.24Z" transform="translate(-1.92 0.03)"/><path class="cls-7" d="M216.78,27.67a2.78,2.78,0,0,0,.88,2.1,3.86,3.86,0,0,0,2.49.65,12.82,12.82,0,0,0,3.43-.55V32a7.22,7.22,0,0,1-1.84.61,10.69,10.69,0,0,1-2.21.22,5.63,5.63,0,0,1-4.26-1.52,6.17,6.17,0,0,1-1.46-4.44,6.18,6.18,0,0,1,1.45-4.38,5.24,5.24,0,0,1,4-1.56,4.47,4.47,0,0,1,3.35,1.2,4.66,4.66,0,0,1,1.18,3.42,9.14,9.14,0,0,1-.07,1.1,8.22,8.22,0,0,1-.15,1Zm2.4-4.51a2.28,2.28,0,0,0-1.71.65,3,3,0,0,0-.71,1.88h4.31v-.37Q221.07,23.16,219.18,23.16Z" transform="translate(-1.92 0.03)"/><path class="cls-7" d="M232.73,32.51l-.26-1a5.32,5.32,0,0,1-1.58,1,4.58,4.58,0,0,1-1.72.36,3.62,3.62,0,0,1-2.61-.92,3.25,3.25,0,0,1-1-2.46,3.3,3.3,0,0,1,.53-1.86,3.55,3.55,0,0,1,1.52-1.27,5.56,5.56,0,0,1,2.33-.46,10.81,10.81,0,0,1,2.33.29v-1.1a1.82,1.82,0,0,0-.42-1.39,2.36,2.36,0,0,0-1.54-.37,13.24,13.24,0,0,0-4,.68V21.86a8.35,8.35,0,0,1,2.05-.67,13,13,0,0,1,2.5-.25,5,5,0,0,1,3.31.91,3.62,3.62,0,0,1,1,2.87v7.79Zm-2.66-1.8a3,3,0,0,0,1.13-.24,4.23,4.23,0,0,0,1.09-.66V27.89a11.57,11.57,0,0,0-1.74-.15c-1.27,0-1.91.51-1.91,1.54a1.44,1.44,0,0,0,.37,1.06A1.47,1.47,0,0,0,230.07,30.71Z" transform="translate(-1.92 0.03)"/><path class="cls-7" d="M247,32.51l-1.94-7.9-2,7.9H240l-3.58-11.24h3.39l1.87,8.12,2-8.12h2.88l2.07,8.14,1.76-8.14h3.3l-3.61,11.24Z" transform="translate(-1.92 0.03)"/><path class="cls-7" d="M261.86,32.51l-.27-1a5.15,5.15,0,0,1-1.57,1,4.59,4.59,0,0,1-1.73.36,3.61,3.61,0,0,1-2.6-.92,3.56,3.56,0,0,1-.45-4.32,3.52,3.52,0,0,1,1.51-1.27,5.61,5.61,0,0,1,2.34-.46,10.81,10.81,0,0,1,2.33.29v-1.1a1.82,1.82,0,0,0-.42-1.39,2.36,2.36,0,0,0-1.54-.37,13.24,13.24,0,0,0-4,.68V21.86a8.4,8.4,0,0,1,2-.67,13.19,13.19,0,0,1,2.51-.25,5,5,0,0,1,3.31.91,3.62,3.62,0,0,1,1.05,2.87v7.79Zm-2.66-1.8a3,3,0,0,0,1.13-.24,4.23,4.23,0,0,0,1.09-.66V27.89a11.57,11.57,0,0,0-1.74-.15c-1.28,0-1.91.51-1.91,1.54a1.44,1.44,0,0,0,.37,1.06A1.47,1.47,0,0,0,259.2,30.71Z" transform="translate(-1.92 0.03)"/><path class="cls-7" d="M270,32.69l-4.45-11.42h3.41l2.51,8.4,2.38-8.4h3.32L272.4,34a5.8,5.8,0,0,1-1.57,2.51,3.52,3.52,0,0,1-2.33.77,6.7,6.7,0,0,1-2.13-.35V34.78c.47,0,.88.06,1.25.06a2.18,2.18,0,0,0,1.43-.42,3.38,3.38,0,0,0,.86-1.49Z" transform="translate(-1.92 0.03)"/><path class="cls-7" d="M284.54,32.51V16.23h3.21v5.9a4.73,4.73,0,0,1,1.5-.87,4.86,4.86,0,0,1,1.69-.32,4.1,4.1,0,0,1,3.38,1.56,6.6,6.6,0,0,1,1.24,4.23,8,8,0,0,1-.57,3.1A4.89,4.89,0,0,1,293.34,32a4.15,4.15,0,0,1-2.49.79A5,5,0,0,1,289,32.4a3.82,3.82,0,0,1-1.47-1l-.29,1.1Zm5.37-9.15a4.17,4.17,0,0,0-2.16.6v5.78a4,4,0,0,0,2.16.6,2,2,0,0,0,1.81-.84,4.69,4.69,0,0,0,.58-2.64,4.8,4.8,0,0,0-.57-2.66A2,2,0,0,0,289.91,23.36Z" transform="translate(-1.92 0.03)"/><path class="cls-7" d="M303.06,32.84A5.33,5.33,0,0,1,299,31.27a6.18,6.18,0,0,1-1.47-4.39A6.16,6.16,0,0,1,299,22.51a6.11,6.11,0,0,1,8.18,0,6.12,6.12,0,0,1,1.48,4.37,6.14,6.14,0,0,1-1.48,4.39A5.31,5.31,0,0,1,303.06,32.84Zm0-2.46c1.54,0,2.31-1.17,2.31-3.5s-.77-3.48-2.31-3.48-2.31,1.16-2.31,3.48S301.52,30.38,303.06,30.38Z" transform="translate(-1.92 0.03)"/><path class="cls-7" d="M317.82,32.23a7.21,7.21,0,0,1-2.66.46,3.8,3.8,0,0,1-2.76-.88,3.72,3.72,0,0,1-.89-2.73V23.65h-1.69v-2l1.78-.36.48-3.08h2.64v3h3v2.38h-3v5.28a1.22,1.22,0,0,0,.35,1,2,2,0,0,0,1.19.28,10.22,10.22,0,0,0,1.56-.13Z" transform="translate(-1.92 0.03)"/></svg>